
<svg fill="#000000" xmlns="http://www.w3.org/2000/svg" xmlns:xlink="http://www.w3.org/1999/xlink" version="1.1" x="0px" y="0px" viewBox="0 0 100 125" style="enable-background:new 0 0 100 100;" xml:space="preserve"><path d="M66.6,87.6H33c-9.4,0-16.8-7.5-16.8-16.8v-43h20.6v3.7H19.9v39.3c0,7.3,5.8,13.1,13.1,13.1h33.7c7.3,0,13.1-5.8,13.1-13.1  V31.5H62.9v-3.7h20.6v43C83.5,80.1,76,87.6,66.6,87.6z"/><rect x="47.9" y="12.5" width="3.7" height="47"/><polygon points="49.8,62.2 37.8,50.1 40.4,47.5 49.8,56.9 59.4,47.3 62,49.9 "/>

<!-- <text x="0" y="115" fill="#000000" font-size="5px" font-weight="bold" font-family="'Helvetica Neue', Helvetica, Arial-Unicode, Arial, Sans-serif">Created by Loudoun Design Co.</text><text x="0" y="120" fill="#000000" font-size="5px" font-weight="bold" font-family="'Helvetica Neue', Helvetica, Arial-Unicode, Arial, Sans-serif">from the Noun Project</text> -->

</svg>
