<svg xmlns="http://www.w3.org/2000/svg" viewBox="0 0 296.1 379.09">
    <title>accessible</title>
    <g id="Layer_2" data-name="Layer 2">
        <g id="Layer_1-2" data-name="Layer 1">
            <path d="M289.71,171.89a22.56,22.56,0,0,0-17.38-6.77l-78.53,4.37L237,120.27a26.4,26.4,0,0,0,5.54-24.71,22.42,22.42,0,0,0-10-14.26c-.16-.12-103.3-60-103.3-60a22.52,22.52,0,0,0-26.3,2.67L52.52,68.88a22.52,22.52,0,1,0,30,33.61l38.2-34.07,31.58,18.34L96.54,150.24A114.85,114.85,0,0,0,36.3,180l29.11,29.11A74,74,0,0,1,170,313.68l29.11,29.11a115.18,115.18,0,0,0,19.56-129.57l30.4-1.69-7.39,90.7a22.52,22.52,0,0,0,20.62,24.28c.62.05,1.24.07,1.85.07a22.53,22.53,0,0,0,22.42-20.69L296,189.44A22.52,22.52,0,0,0,289.71,171.89Z"
            />
            <path d="M248,75.4a37.7,37.7,0,1,0-37.7-37.7A37.7,37.7,0,0,0,248,75.4Z" />
            <path d="M115.19,338A74,74,0,0,1,53.92,222.36L24.5,192.94A115.15,115.15,0,0,0,186.15,354.6l-29.42-29.42A73.64,73.64,0,0,1,115.19,338Z" />
        </g>
    </g>
</svg>
