<svg xmlns="http://www.w3.org/2000/svg" viewBox="0 0 584.18 680.52"><defs><style>.cls-1{fill:none;stroke:#000;stroke-miterlimit:10;}</style></defs><title>aliza</title><g id="Layer_2" data-name="Layer 2"><g id="Layer_1-2" data-name="Layer 1"><path class="cls-1" d="M230.37,175.65c-2.91,23.08-4.76,46.7.14,69.44a119.79,119.79,0,0,0,26.5,53c8.51,9.81,19,18.39,31.4,22.18,20.39,6.23,42.28-1.27,61.7-10.06,6.38-2.89,12.74-5.95,18.38-10.09,6.69-4.91,12.21-11.21,17.68-17.45,4.94-5.65,9.94-11.38,13.28-18.1s4.82-13.85,6.25-21.05a808,808,0,0,0,11.74-80.18"/><path class="cls-1" d="M353.76,237a15.53,15.53,0,0,1,5.19.68,5.26,5.26,0,0,1,3.48,3.65,7.43,7.43,0,0,1-.1,2.63A85.41,85.41,0,0,1,356.39,264"/><path class="cls-1" d="M340.41,144.91c5.9-1.6,12.09-1.75,18.2-1.87,4.94-.09,9.94-.16,14.78.86s9.58,3.24,12.75,7a21.52,21.52,0,0,1,3.27,5.56,30.17,30.17,0,0,1,1.73,17.33c-1.07,5.39-3.59,10.38-6.48,15a24,24,0,0,1-2.36,3.33c-2.86,3.24-7.05,4.93-11.18,6.21-6.06,1.89-12.42,3.16-18.73,2.56s-12.61-3.25-16.68-8.13a33,33,0,0,1-3.47-5.34c-4.41-8-7.89-17.26-7.21-26.59S331.65,147.29,340.41,144.91Z"/><path class="cls-1" d="M238.49,140c3.46-1.75,7.38-2.32,11.24-2.65a103.11,103.11,0,0,1,18.43.09,41.74,41.74,0,0,1,13.4,3.1,19.2,19.2,0,0,1,9.82,9.28c1.68,3.79,1.71,8.07,1.71,12.21,0,4.66,0,9.46-1.87,13.74-2,4.63-5.92,8.12-9.71,11.45a19.79,19.79,0,0,1-12.78,6.12c-5.95,1-12.33,2-17.82-.52-4.31-2-7.41-5.84-11-8.94-1.72-1.48-3.57-2.81-5.15-4.44-4-4.13-5.86-10-6-15.72C228.44,155.27,230.12,144.29,238.49,140Z"/><path class="cls-1" d="M236.14,133.62a71.27,71.27,0,0,1,53.41,5.7,41.42,41.42,0,0,0,7.4,3.58,32,32,0,0,0,8.55,1l15.59.44a16.43,16.43,0,0,0,4.28-.25A20.07,20.07,0,0,0,330,142c16.55-8.78,37-6.47,54.47.35,7.78,3,15.5,7,23.85,7.12l0,6.51c-3.48-.27-6.67,2.21-8.45,5.21s-2.46,6.5-3.38,9.86A66.12,66.12,0,0,1,384.28,195a29.23,29.23,0,0,1-4.28,4.46,28.08,28.08,0,0,1-8,4.28c-9.18,3.4-19.52,4.27-28.78,1.09S326,194,323.61,184.54c-1.19-4.73-1-9.78-2.71-14.35-1.34-3.61-3.85-7.22-2.89-10.94.27-1.06.82-2.1.65-3.18-.35-2.12-3-2.75-5.18-2.92l-6.92-.54a2.52,2.52,0,0,0-1.48.18,2.59,2.59,0,0,0-.95,1.87A70.69,70.69,0,0,1,291,183.9a32.1,32.1,0,0,1-8.32,8.05c-4.24,2.62-9.25,3.63-14.14,4.54a49.41,49.41,0,0,1-11.79,1.21c-9-.51-17.18-5.84-22.77-12.86s-8.86-15.62-11.22-24.29a41.14,41.14,0,0,0-2.86-8.4c-1.82-3.46-8-10.82-2.63-13.76,2.39-1.3,6.57-1,9.28-1.75C229.76,135.75,232.92,134.57,236.14,133.62Z"/><path class="cls-1" d="M336,161.62l9.75-2.44c3.91-1,8.05-2,11.91-.77,3.66,1.12,6.45,4,9.45,6.39s6.84,4.41,10.53,3.38"/><path class="cls-1" d="M338.45,154.87a29.43,29.43,0,0,1,33.15,4.43c1.89,1.79,3.56,3.84,5.69,5.33s4.94,2.35,7.36,1.4"/><path class="cls-1" d="M264.64,151.6c-4.5,3,.16,8.16,3.69,9.28a10.51,10.51,0,0,0,7.38-.2C287.16,155.61,270.43,147.69,264.64,151.6Z"/><path class="cls-1" d="M348.93,158.44a16.18,16.18,0,0,0-.67,4.63,5.46,5.46,0,0,0,1.93,4.12,7.91,7.91,0,0,0,3,1.18c2.34.56,4.81,1.06,7.12.36s4.3-3,3.79-5.35"/><path class="cls-1" d="M287.15,152.49a23.87,23.87,0,0,0-13.62-7.16,43.66,43.66,0,0,0-6.79-.36c-3.05,0-6.3.13-8.83,1.84a13.65,13.65,0,0,0-2.7,2.58,46.45,46.45,0,0,0-4.24,5.88,12,12,0,0,1-2.36,3.15,3.48,3.48,0,0,1-3.67.67"/><path class="cls-1" d="M287.42,155.5c-2.28.49-4.53-.78-6.62-1.82a39.34,39.34,0,0,0-15.2-4.06,6.46,6.46,0,0,0-3.22.4,8.43,8.43,0,0,0-2.69,2.72,18.19,18.19,0,0,1-9.08,6.42A14,14,0,0,1,239.68,158"/><path class="cls-1" d="M330.71,139a8.83,8.83,0,0,1,5.4-5.52A22.41,22.41,0,0,1,344,132.2a104.62,104.62,0,0,1,35.48,5.29c2,.66,4.32,1.88,4.28,4"/><path class="cls-1" d="M286.94,137c0-2.66-.24-5.7-2.34-7.33a8.94,8.94,0,0,0-4.5-1.4c-10.2-1.25-20.89-2.45-30.48,1.25"/><path class="cls-1" d="M269.47,218.79c-4.12,3.4-6.3,8.56-8.26,13.53a23.63,23.63,0,0,0-1.77,6.09,12.19,12.19,0,0,0,2.35,8.5"/><path class="cls-1" d="M281,274.79a279.3,279.3,0,0,1,34.39,4.29"/><path class="cls-1" d="M407,240c2.09,2,5.62,1.88,8.06.3s4-4.25,5-7,1.61-5.59,2.76-8.26c.92-2.13,2.17-4.11,3-6.28a8.93,8.93,0,0,0,.15-6.77"/><path class="cls-1" d="M415.86,211.25a6,6,0,0,0-.6,3.12,2.78,2.78,0,0,0,1.9,2.37c1.38.34,2.74-.77,3.4-2s.91-2.71,1.6-4c1.16-2.06,3.48-3.39,4.21-5.64.58-1.77,0-3.69-.37-5.51a30.18,30.18,0,0,1-.08-12.23"/><path class="cls-1" d="M347.37,168.26a103.51,103.51,0,0,0,22.33.11"/><path class="cls-1" d="M254.62,158.29l17.67,4.33"/><path class="cls-1" d="M239.66,140.7l-.54,13.41a4.21,4.21,0,0,1-.27,1.58c-.37.83-1.23,1.32-1.79,2-1.14,1.47-.85,3.57-1.5,5.31-.34.91-.93,1.7-1.26,2.62-.59,1.67-.22,3.49-.08,5.25s-.07,3.76-1.43,4.89l.31-.78"/><path class="cls-1" d="M376,239.75c3.52.66,7.13-.9,10-3.11s5.08-5,7.66-7.54"/><path class="cls-1" d="M236.06,223c1.36,2.1,4.3,2.26,6.58,3.29a16.75,16.75,0,0,1,3.58,2.44c3,2.48,6.16,5.08,7.78,8.64"/><path class="cls-1" d="M354.74,158.39a3.29,3.29,0,1,0,5.24,1.95"/><path class="cls-1" d="M272.68,152.39a2.62,2.62,0,0,0-2.45.57,2,2,0,0,0-.37,2.4,3,3,0,0,0,2.61,1.07,3.56,3.56,0,0,0,2.84-1c.66-.8.42-2.31-.59-2.53"/><path class="cls-1" d="M330.69,57.73a42.37,42.37,0,0,1,18,2.5c13.27,5.32,21.27,19,25.66,32.61,2.84,8.81,4.64,18.06,8.94,26.26s11.86,15.47,21.09,16.25"/><path class="cls-1" d="M319.33,49.39c5-6.9,14.71-7.79,23.21-8,6.75-.2,14.19-.17,19.29,4.26,2.57,2.23,4.21,5.32,5.74,8.36,13.56,26.78,24.15,55,36.92,82.13A151.24,151.24,0,0,0,416,157.2c4.59,6.73,10.15,12.86,13.77,20.17,4.27,8.63,5.59,18.37,6.84,27.92.62,4.69,1.23,9.44.67,14.13A29,29,0,0,1,417.84,243"/><path class="cls-1" d="M291.43,37c1.24-13.67,13.44-24.44,26.71-27.91s27.36-1,40.62,2.51c11.63,3.1,23.21,7.13,33.05,14.05,8.5,6,15.4,13.91,22.21,21.76,9.67,11.14,19.39,22.36,26.83,35.09,4.64,7.94,8.35,16.38,12,24.8L465,134.91a151.32,151.32,0,0,1,6.07,15.34,75.72,75.72,0,0,1,3.26,16.95,205.94,205.94,0,0,1-35.59,79.12,10.2,10.2,0,0,1-4.08,3.77c-4.83,1.92-9.46-3.76-14.65-4"/><path class="cls-1" d="M388.57,282.85c-1.85,9.6-3.7,19.28-3.65,29.06,0,4.6.47,9.21.12,13.79-.27,3.57-1,7.08-1.48,10.63-1.07,8.27-.55,16.66,0,25,1.21,19.35,2.43,38.75,6,57.81,1.76,9.45,4.09,18.81,5,28.38s.27,19.51-3.66,28.27S379.27,492,369.87,494"/><path class="cls-1" d="M413.82,266.49c4.82,2.65,7.74,7.85,9.25,13.14s1.85,10.84,2.91,16.23c4.28,21.59,21.24,40.17,42.34,46.39"/><path class="cls-1" d="M413.08,282.62a52.67,52.67,0,0,1,9.05,28.64c.23,15.44-6.34,30.73-3.88,46,2.16,13.36,11,24.64,20.36,34.41s19.74,18.92,26.37,30.72a73.59,73.59,0,0,1,8.53,28.18,190.33,190.33,0,0,1,.7,21.24l0,10"/><path class="cls-1" d="M403.61,324.18c-3.22,4.78-6.48,9.66-8.07,15.19-1.84,6.41-1.3,13.25-.33,19.84a160,160,0,0,0,8.67,33.38c10.44,27.57,28.52,52.32,34.61,81.16,2.85,13.5,2.93,27.71-.86,41S426.05,540.27,415,548.49"/><path class="cls-1" d="M285.07,39.09a41,41,0,0,0-10.63-7.86c-2.85-1.39-7.77-1.77-9.14-5.07-3-7.29,8.85-15.37,13.92-17.93C297.92-1.19,320.17-1,340.6,3.52c2.93.65,6.36,1.89,7,4.82"/><path class="cls-1" d="M219,136.29l-4.09-21c-1-5.16-2-10.44-1.2-15.63.88-5.58,3.8-10.6,5.84-15.87,5.66-14.66,5.09-32.58,16.23-43.67,7.19-7.16,17.69-9.67,27.7-11.28"/><path class="cls-1" d="M325,58A83.26,83.26,0,0,0,294,51c-5.41-.17-11,.23-15.91,2.44-5.38,2.41-9.62,6.77-13.38,11.31A123.14,123.14,0,0,0,237,132.35"/><path class="cls-1" d="M433.55,251.28c-2.17,5.78,2.84,11.63,7.67,15.49,16.16,12.94,36.12,23.18,44.89,41.93,3.59,7.67,5,16.15,7.21,24.3a112.9,112.9,0,0,0,16.24,34.47c7.76,11.1,19.19,21.49,32.73,21.16"/><path class="cls-1" d="M411,249.36c21,16,41.1,33.5,57.56,54.15s29.23,44.67,34.22,70.61c2,10.51,2.78,21.35,6.53,31.37s11.29,19.45,21.73,21.81"/><path class="cls-1" d="M407.14,269.89c7.42,8.82,10.34,20.43,14.46,31.2A136.71,136.71,0,0,0,438,331.6c10.1,14.17,22.9,26.41,31.64,41.45,5.32,9.16,9.05,19.23,15.1,27.92,4.87,7,11.18,13,15.25,20.49,6.16,11.32,6.6,24.77,6.89,37.66l1,42.47c.1,4.38.22,8.87,1.93,12.9s5.38,7.54,9.75,7.72"/><path class="cls-1" d="M241.91,281.24c-11.6,4.91-14.46,19.71-21.65,30.05-3.15,4.53-7.4,8.53-8.95,13.83-1.19,4.08-.63,8.44-.05,12.66l5.43,39.83a123.63,123.63,0,0,0,3.19,17.26c1.72,6,4.36,11.83,5.26,18a32.92,32.92,0,0,1-1.54,15.59L237,423.28c7.43-2.9,15.06-5.92,20.83-11.42s9.28-14.16,6.45-21.62c6.92,4.69,13.89,9.41,21.51,12.86,7.4,3.35,15.3,5.45,23.16,7.54l31.24,8.3q-37.09-22.18-72.32-47.29c-8.34-5.94-16.84-16-15.92-26.18-.49,0-.38.9.09,1a1.54,1.54,0,0,0,1.31-.51,22.14,22.14,0,0,0,7.51-14c.57-4.63-.34-9.29-.55-13.95a46.36,46.36,0,0,1,1.36-13.41"/><path class="cls-1" d="M264.23,401.07c8,2.31,15,7.27,23,9.49,4.82,1.34,9.86,1.65,14.86,1.95,15.61.94,36.5,6,51.75,1.6,5.53-1.58,10.68-4.46,16.34-5.5,3.33-.61,6.77-.58,10.06-1.41s2.33-11.54,3.48-14.72c-8,2-16.29,4-22.86,9-2.69,2-5,4.54-7.93,6.27-4,2.38-9,3.36-11.84,7"/><path class="cls-1" d="M223.72,304.65a80.41,80.41,0,0,0-10.54,1.79c-5.23,1.25-10.81,3.41-13.36,8.15-1.91,3.54-1.71,7.88-.61,11.75a28.25,28.25,0,0,0,12.45,16.31"/><path class="cls-1" d="M227.43,296a52.11,52.11,0,0,0-34.57,6c-5.41,3.1-10.21,7.15-15.55,10.36-20.41,12.28-46.21,11.15-68.24,20.23-21.74,9-38.53,27.55-49.07,48.57S44.61,425.64,41.56,449c-1.34,10.22-2.57,21.22-3.62,31.48A130.69,130.69,0,0,1,36,494c-6.73,32.24-18.12,63.41-23.87,95.83C6.85,619.64,6.39,650.21.49,679.95"/><path class="cls-1" d="M494.28,331.31c14.63,10.45,31.65,17.7,44.5,30.28,13.07,12.79,20.72,30,28.07,46.74,5.28,12,10.63,24.37,11.49,37.48.59,9-1,17.92-1.64,26.88-.85,11.08-.38,22.21.09,33.31l6.89,162.73-.31-6.08"/><path class="cls-1" d="M513.3,519.89c7.36,12.82,8.57,28.14,9.6,42.89,1.75,24.84,3.32,50.79-6.49,73.69-6.2,14.48-17,28.35-15.24,44"/><path class="cls-1" d="M159.93,491.57c-15.63,14.25-19.37,37.29-19.64,58.44a266.89,266.89,0,0,0,6.65,62.62c4.61,20.22,11.64,40.85,7.76,61.23"/><path class="cls-1" d="M391.5,479a18.37,18.37,0,0,1-18.89,25,24.07,24.07,0,0,0,19.25,5.11,62.2,62.2,0,0,1-15,29.14c11.88,5.61,24.71,10.61,37.78,9.29a41.13,41.13,0,0,0,20-7.63c.05,4.29,4.94,7.09,9.24,6.93s8.24-2.26,12.35-3.47,9.13-1.33,12.11,1.76a60.2,60.2,0,0,0,24.22-27.86,24.31,24.31,0,0,1,.24,18.34l12.89-19.75c3-4.62,6.11-9.44,6.82-14.9,1.41-10.81-6.76-20.89-6.44-31.79.35-12,10.85-22.75,8.25-34.42-1-4.33-3.62-9.12-1.14-12.8A17.23,17.23,0,0,1,516.2,419c5.86-5.23,6.33-15.37,1-21.12"/><path class="cls-1" d="M311.33,34.48a77.5,77.5,0,0,1,52.85-1.58,38.63,38.63,0,0,1,11.23,5.54c9.81,7.43,12.94,20.49,17.74,31.82,14.31,33.75,47.46,57.49,58.72,92.37a82.63,82.63,0,0,1-4.61,61.46"/><path class="cls-1" d="M248.61,286a316.51,316.51,0,0,0,2.23,58.68c.55,4.17-1.31,7.62-.22,11.69a141.77,141.77,0,0,0,12.94,32"/><path class="cls-1" d="M145.42,618.68a176.49,176.49,0,0,1-6.06,60.74"/><path class="cls-1" d="M265.42,237.52c3.64,5.63,9.61,9.44,15.93,11.67s13,3,19.7,3.76c17.36,1.88,36.11,3,51.08-5.94a416.8,416.8,0,0,1-87.76-8.66l11.35,13.09c4.56,5.26,9.36,10.7,15.78,13.4,4.84,2,10.23,2.33,15.46,2.05a75.09,75.09,0,0,0,44.81-18.11"/><path class="cls-1" d="M317.51,205.56c1.8-1.86,5.06-1.63,7.08,0a10.2,10.2,0,0,1,3.28,6.84,7.46,7.46,0,0,1-.63,4.62c-1.13,2-3.57,2.84-5.83,2.81a29,29,0,0,1-6.64-1.32,4.67,4.67,0,0,0-2.49-.13c-1.15.35-1.86,1.46-2.72,2.31-2.76,2.74-7.1,2.84-11,2.78-3.54-.06-7.9-.68-9.09-4-.37-1-.47-2.38-1.46-2.86-.8-.38-1.72,0-2.6.12-2.59.28-4.71-2.47-4.7-5.07s1.5-5,3.09-7c2.63-3.42,5.66-6.56,7.81-10.29s3.35-8.31,1.94-12.39"/></g></g></svg>