<svg xmlns="http://www.w3.org/2000/svg" xmlns:xlink="http://www.w3.org/1999/xlink" version="1.1" x="0px" y="0px" viewBox="0 0 100 125" enable-background="new 0 0 100 100" xml:space="preserve">
    <g>
        <path d="M45.958,0.931c4.131,0,7.489,3.354,7.489,7.489s-3.358,7.479-7.489,7.479c-4.128,0-7.479-3.343-7.479-7.479   S41.83,0.931,45.958,0.931z" />
    </g>
    <g>
        <rect x="79.859" y="20.457" transform="matrix(0.4477 0.8942 -0.8942 0.4477 68.6099 -59.6408)" width="5.449" height="10.523" />
    </g>
    <g>
        <g>
            <path d="M64.771,21.019c-0.371-0.792-0.982-1.382-1.702-1.756c-1.012-0.764-2.655-1.305-5.194-1.465h-3.453v19.642l14.61-7.32    L64.771,21.019z" />
            <path d="M79.051,31.518c-0.035-0.506-0.173-0.993-0.397-1.441c-0.001,0-0.001,0-0.001-0.002c-0.417-0.83-1.126-1.517-2.064-1.869    c-1.979-0.743-4.183,0.259-4.924,2.237l-1.447,3.857L54.43,42.21c-1.439-4.534-5.23-8.026-9.932-9.05V17.798l-8.964,0.038    c-0.872,0.009-1.72,0.295-2.419,0.817L19.227,29.011c-1.062,0.792-1.679,2.045-1.656,3.371c0.023,1.326,0.681,2.558,1.77,3.314    l9.491,6.589c-0.391,1.258-0.602,2.593-0.602,3.978c0,6.23,4.274,11.464,10.04,12.967l0.056,40.637l9.337-0.005V60.284h3.45    v39.597l9.348-0.019l-0.016-0.442V53.236h4.339V39.083l2.703,5.771c0.09,0.193,0.199,0.374,0.317,0.546    c0.035,0.05,0.075,0.097,0.112,0.145c0.1,0.132,0.206,0.255,0.321,0.371c0.048,0.049,0.097,0.099,0.148,0.146    c0.162,0.147,0.333,0.285,0.517,0.402c0.019,0.01,0.038,0.018,0.056,0.03c0.18,0.11,0.371,0.201,0.566,0.28    c0.029,0.011,0.053,0.03,0.082,0.04c0.034,0.013,0.068,0.018,0.103,0.029c0.142,0.049,0.287,0.088,0.436,0.12    c0.063,0.014,0.127,0.031,0.19,0.041c0.18,0.03,0.362,0.046,0.548,0.05c0.022,0,0.044,0.005,0.065,0.005    c0.007,0,0.013-0.001,0.019-0.001c0.045-0.001,0.089-0.001,0.134-0.002c0.072-0.003,0.142-0.017,0.213-0.024    c0.094-0.009,0.187-0.016,0.279-0.031c0.102-0.018,0.2-0.044,0.3-0.069c0.082-0.022,0.165-0.041,0.245-0.067    c0.102-0.033,0.2-0.075,0.298-0.116c0.075-0.032,0.15-0.061,0.222-0.098c0.095-0.046,0.183-0.102,0.271-0.155    c0.072-0.045,0.147-0.084,0.216-0.133c0.081-0.058,0.155-0.121,0.23-0.184c0.07-0.059,0.143-0.112,0.209-0.175    c0.068-0.065,0.129-0.139,0.192-0.209c0.064-0.07,0.13-0.136,0.188-0.211c0.065-0.083,0.12-0.175,0.179-0.264    c0.047-0.071,0.097-0.137,0.139-0.212c0.095-0.168,0.178-0.345,0.248-0.53l4.294-11.446c0.096-0.256,0.16-0.516,0.2-0.776    c0.006-0.04,0.002-0.079,0.007-0.119c0.026-0.224,0.04-0.448,0.025-0.67C79.057,31.549,79.053,31.534,79.051,31.518z     M35.419,27.21v7.18c-0.644,0.339-1.251,0.735-1.829,1.17l-4.852-3.368L35.419,27.21z M30.573,46.263    c0-0.88,0.115-1.732,0.309-2.554l7.135,4.954c0.716,0.496,1.536,0.736,2.346,0.736c1.304,0,2.587-0.618,3.387-1.771    c1.296-1.869,0.834-4.435-1.035-5.733l-7.082-4.917c1.732-1.126,3.795-1.788,6.011-1.788c6.105,0,11.071,4.967,11.071,11.072    c0,6.103-4.966,11.071-11.071,11.071C35.54,57.334,30.573,52.366,30.573,46.263z"
            />
        </g>
    </g>
    <!-- <text x="0" y="115" fill="#000000" font-size="5px" font-weight="bold" font-family="'Helvetica Neue', Helvetica, Arial-Unicode, Arial, Sans-serif">Created by Luis Prado</text><text x="0" y="120" fill="#000000" font-size="5px" font-weight="bold" font-family="'Helvetica Neue', Helvetica, Arial-Unicode, Arial, Sans-serif">from the Noun Project</text> -->
</svg>
