<svg xmlns="http://www.w3.org/2000/svg" xmlns:xlink="http://www.w3.org/1999/xlink" version="1.1" x="0px" y="0px" viewBox="0 0 100 125" enable-background="new 0 0 100 100" xml:space="preserve">
    <path d="M88.213,23.058l8.344,3.51l-6.645-10.884c-0.908-3.583-4.145-6.237-8.01-6.237c-4.566,0-8.27,3.703-8.27,8.271  c0,0.424,0.038,0.84,0.1,1.247l-0.1-0.032c0,0,1.422,5.548-1.438,9.486C69.337,32.357,60.03,41.306,60.03,41.306L10.99,73.164  l-7.517,5.189l18.065-2.771c6.628,1.151,18.655,2.871,30.329,2.634c2.103,1.262,4.342,2.551,5.43,3.007l1.328,4.819h-5.754v2.685  h16.107v-2.685H61.41l-1.633-5.924c0.94-0.815,2.042-1.885,2.965-2.811c6.933-1.111,12.972-3.348,16.618-7.366  c4.556-5.023,6.479-10.884,7.006-16.503l0.16,0.036V24.577C87.156,24.15,87.722,23.638,88.213,23.058z"
    />
    <!-- <text x="0" y="115" fill="#000000" font-size="5px" font-weight="bold" font-family="'Helvetica Neue', Helvetica, Arial-Unicode, Arial, Sans-serif">Created by Kari Gaynor</text>
    <text x="0" y="120" fill="#000000" font-size="5px" font-weight="bold" font-family="'Helvetica Neue', Helvetica, Arial-Unicode, Arial, Sans-serif">from the Noun Project</text> -->
</svg>
