
<svg xmlns="http://www.w3.org/2000/svg" xmlns:xlink="http://www.w3.org/1999/xlink" version="1.1" x="0px" y="0px" viewBox="0 0 100 125" style="enable-background:new 0 0 100 100;" xml:space="preserve"><g><path d="M19.967,19.685l5.367,5.366c0.339,0.339,0.888,0.339,1.226,0l5.366-5.366l0.127-0.127c1.722-1.722,1.824-4.647,0.022-6.286   c-0.802-0.73-1.823-1.094-2.843-1.094c-1.085,0-2.168,0.411-2.991,1.233l-0.294,0.294l-0.181-0.181   c-1.447-1.44-3.739-1.786-5.436-0.651c-1.26,0.843-1.891,2.186-1.891,3.527c0,1.084,0.412,2.168,1.234,2.989L19.967,19.685z"/><path d="M25.947,30.376c6.996,0,12.688-5.692,12.688-12.688S32.943,5,25.947,5s-12.688,5.691-12.688,12.688   S18.951,30.376,25.947,30.376z M25.947,7c5.893,0,10.688,4.794,10.688,10.688S31.84,28.376,25.947,28.376   c-5.894,0-10.688-4.795-10.688-10.688S20.053,7,25.947,7z"/><path d="M82.219,64.954c0.122-1.134,0.508-5.316-0.042-8.206c-0.667-3.505-2.165-6.567-3.344-8.264   c-1.119-1.61-3.466-4.259-5.353-6.388c-1.028-1.16-2.076-2.343-2.574-2.972l0.382-1.515c0.184-0.727-0.129-1.467-0.779-1.842   c-0.524-0.302-1.137-0.281-1.639,0.007c-0.015,0.002-0.029,0.004-0.045,0.007c0.074-0.842,0.184-2.382,0.184-4.155   c0-1.432,1.212-4.495,2.187-6.957c0.644-1.628,1.253-3.166,1.564-4.302c0.389-1.409,1.327-7.393-1.603-8.752   c-1.844-0.845-5.466,1.316-10.384,4.461c-1.076,0.688-2.004,1.281-2.643,1.636c-2.598,1.44-8.226,6.839-9.295,7.875   c-0.979,0.326-4.855,1.707-9.978,4.672c-0.79-0.784-1.876-1.27-3.074-1.27c-2.411,0-4.372,1.961-4.372,4.372   c0,0.578,0.119,1.128,0.323,1.633c-2.416,1.826-4.726,3.809-6.864,5.921c-10.225,10.08-11.323,32.02-11.365,32.948   c-0.025,0.552,0.402,1.019,0.954,1.044c0.015,0.001,0.03,0.001,0.046,0.001c0.531,0,0.974-0.419,0.998-0.955   c0.01-0.22,1.107-22.087,10.772-31.614c2.064-2.039,4.293-3.954,6.624-5.719c0.772,0.683,1.774,1.111,2.883,1.111   c2.41,0,4.371-1.961,4.371-4.371c0-0.491-0.1-0.955-0.25-1.396c5.593-3.229,9.714-4.53,9.757-4.543   c0.151-0.047,0.29-0.129,0.403-0.239c0.064-0.063,6.454-6.29,9.038-7.722c0.693-0.385,1.646-0.994,2.75-1.7   c2.202-1.406,7.355-4.691,8.469-4.329c1.097,0.509,1.095,4.295,0.512,6.404c-0.283,1.032-0.872,2.521-1.496,4.097   c-1.144,2.891-2.327,5.88-2.327,7.693c0,2.155-0.176,4.015-0.225,4.488c-1.331,0.231-2.977,0.545-4.2,0.873   c-1.899,0.511-9.406,2.829-9.725,2.928c-0.528,0.163-0.824,0.723-0.661,1.25c0.133,0.43,0.528,0.705,0.955,0.705   c0.098,0,0.197-0.015,0.295-0.045c0.078-0.023,7.791-2.405,9.654-2.906c0.892-0.24,2.054-0.476,3.136-0.675l-4.878,4.753   c-0.805,0.634-6.193,4.942-7.444,7.602c-1.332,2.83-0.714,6.505-0.687,6.659c0.007,0.04,0.016,0.078,0.027,0.116l0.91,3.031   c0.13,0.434,0.527,0.713,0.958,0.713c0.095,0,0.192-0.014,0.288-0.042c0.529-0.159,0.829-0.717,0.67-1.245l-0.891-2.967   c-0.064-0.427-0.45-3.322,0.534-5.414c0.911-1.936,5.298-5.646,6.912-6.913c0.028-0.022,0.055-0.046,0.081-0.071l6.333-6.171   L66.129,49.87c-0.135,0.536,0.189,1.079,0.725,1.215c0.534,0.136,1.079-0.188,1.214-0.725l2.233-8.846   c0.451,0.52,1.006,1.148,1.681,1.909c1.852,2.089,4.156,4.688,5.207,6.201c1.062,1.528,2.413,4.3,3.021,7.498   c0.57,2.989-0.004,7.828-0.01,7.877c-0.022,0.184,0.007,0.371,0.085,0.539l4.404,9.543c-0.214,0.904-0.498,1.792-0.629,1.98   c-0.141,0.145-0.767,0.519-1.34,0.802c-0.288,0.142-0.49,0.413-0.543,0.729c-0.109,0.643-0.276,1.357-0.356,1.524   c-0.426,0.819-1.643,1.845-3.144,2.22c-0.414,0.103-0.859,0.17-1.312,0.21l0.635-1.456c0.166-0.38-0.008-0.821-0.388-0.987   s-0.822,0.008-0.987,0.388l-0.908,2.081c-0.596-0.029-1.151-0.096-1.619-0.188l2.998-4.058c0.246-0.333,0.176-0.803-0.157-1.049   c-0.333-0.245-0.803-0.176-1.049,0.158l-3.337,4.517c-0.399-0.13-0.828-0.275-1.261-0.425l3.319-3.098   c0.303-0.282,0.319-0.757,0.037-1.06c-0.283-0.302-0.757-0.32-1.06-0.036l-3.886,3.628c-0.275-0.1-0.526-0.192-0.706-0.259   c-0.292-0.108-0.618-0.075-0.882,0.092c-0.06,0.037-5.974,3.717-11.581,2.594c-5.473-1.095-11.132-2.228-15.179-12.569   c-0.201-0.514-0.78-0.77-1.295-0.567c-0.515,0.202-0.768,0.782-0.567,1.296c4.446,11.36,11.212,12.714,16.649,13.802   c0.881,0.177,1.763,0.253,2.628,0.253c3.092,0,5.977-0.973,7.925-1.833l-5.185,4.84c-0.303,0.282-0.319,0.757-0.037,1.06   c0.148,0.158,0.348,0.238,0.548,0.238c0.184,0,0.367-0.066,0.512-0.202l7.112-6.639c0.503,0.18,1.083,0.384,1.66,0.578   l-7.507,10.16c-0.246,0.333-0.176,0.803,0.157,1.049C64.09,94.952,64.246,95,64.401,95c0.229,0,0.457-0.105,0.604-0.305   l7.809-10.569c0.217,0.063,0.418,0.119,0.578,0.156c0.43,0.099,0.937,0.177,1.481,0.232l-4.116,9.436   c-0.166,0.38,0.008,0.821,0.388,0.987C71.241,94.98,71.343,95,71.443,95c0.289,0,0.565-0.168,0.688-0.45l4.347-9.965   c0.907-0.008,1.839-0.096,2.686-0.308c2.184-0.546,3.8-2.02,4.434-3.237c0.191-0.366,0.356-1.076,0.462-1.615   c0.569-0.305,1.261-0.726,1.561-1.11c0.526-0.674,0.944-2.414,1.099-3.132c0.046-0.212,0.021-0.433-0.07-0.63L82.219,64.954z    M35.783,35.733c-1.308,0-2.372-1.063-2.372-2.371s1.064-2.372,2.372-2.372c0.824,0,1.55,0.424,1.975,1.064   c0.002,0.004,0.002,0.009,0.005,0.013c0.002,0.003,0.005,0.004,0.006,0.007c0.242,0.372,0.385,0.813,0.385,1.288   C38.154,34.67,37.091,35.733,35.783,35.733z"/><path d="M73.051,72.177c0.037,0.004,0.147,0.009,0.184,0.009c0.46,0,2.052-0.163,3.224-2.258c1.325-2.365,0.046-4.611-0.009-4.706   c-0.253-0.434-0.79-0.612-1.25-0.418l-4.698,1.971c-0.273,0.114-0.482,0.345-0.569,0.628c-0.087,0.284-0.043,0.592,0.119,0.84   l2.273,3.486C72.487,71.979,72.754,72.144,73.051,72.177z M75,67.056c0.098,0.513,0.101,1.203-0.287,1.896   c-0.385,0.688-0.789,0.993-1.078,1.128l-1.255-1.925L75,67.056z"/></g>
<!-- <text x="0" y="115" fill="#000000" font-size="5px" font-weight="bold" font-family="'Helvetica Neue', Helvetica, Arial-Unicode, Arial, Sans-serif">Created by Maxim Kulikov</text><text x="0" y="120" fill="#000000" font-size="5px" font-weight="bold" font-family="'Helvetica Neue', Helvetica, Arial-Unicode, Arial, Sans-serif">from the Noun Project</text> -->
</svg>
