<svg xmlns="http://www.w3.org/2000/svg" viewBox="0 0 110.4 147.44"><title>Asset 2</title><g id="Layer_2" data-name="Layer 2"><g id="Layer_1-2" data-name="Layer 1"><path d="M9.06,27.66c0,4.74,3.18,7.38,7,7.38A6.15,6.15,0,0,0,22.2,30.6l8,2.46C28.92,38.28,24,43.44,16,43.44c-8.88,0-16-6.54-16-15.78A15.39,15.39,0,0,1,15.72,11.82c8.22,0,13,5,14.34,10.38L21.9,24.66a5.86,5.86,0,0,0-6-4.44C12.12,20.22,9.06,22.86,9.06,27.66Z"/><path d="M65,27.6A15.42,15.42,0,0,1,49.2,43.44,15.46,15.46,0,0,1,33.36,27.6,15.41,15.41,0,0,1,49.2,11.82C58.14,11.82,65,18.36,65,27.6Zm-9.12,0c0-5-3.24-7.38-6.72-7.38s-6.72,2.34-6.72,7.38S45.78,35,49.2,35,55.92,32.64,55.92,27.6Z"/><path d="M100.44,27.6a15.84,15.84,0,0,1-31.68,0A15.41,15.41,0,0,1,84.6,11.82C93.54,11.82,100.44,18.36,100.44,27.6ZM77.94,0a4.58,4.58,0,0,1,4.62,4.62,4.53,4.53,0,0,1-4.62,4.56,4.48,4.48,0,0,1-4.56-4.56A4.53,4.53,0,0,1,77.94,0ZM91.32,27.6c0-5-3.24-7.38-6.72-7.38s-6.72,2.34-6.72,7.38S81.18,35,84.6,35,91.32,32.64,91.32,27.6ZM91.2,0a4.58,4.58,0,0,1,4.62,4.62A4.53,4.53,0,0,1,91.2,9.18a4.48,4.48,0,0,1-4.56-4.56A4.53,4.53,0,0,1,91.2,0Z"/><path d="M20.28,73.72a12.36,12.36,0,0,0-2.88-.3c-3.66,0-7,2.16-7,8.1v13H1.32V64.72h8.82v4c1.56-3.36,5.34-4.32,7.74-4.32a9,9,0,0,1,2.4.3Z"/><path d="M54.6,89.2c0,2.7.18,4.68.24,5.34H46.08a20.52,20.52,0,0,1-.24-2.88c-1.38,2-4.38,3.54-8,3.54-8.4,0-14.76-6.48-14.76-15.66,0-8.88,6-15.54,14.46-15.54,5.1,0,7.32,1.92,8,3.06v-16h9ZM39,87c3.54,0,6.72-2.52,6.72-7.44S42.54,72.22,39,72.22s-6.72,2.4-6.72,7.38S35.46,87,39,87Z"/><path d="M65.4,50.26a5.34,5.34,0,1,1-5.28,5.34A5.36,5.36,0,0,1,65.4,50.26ZM60.9,94.54V64.72H70V94.54Z"/><path d="M85.38,94.54H76.26V64.72h8.82v3.42c1.62-2.82,5.28-4.2,8.34-4.2,7.5,0,10.86,5.34,10.86,11.88V94.54H95.16V77.38c0-2.94-1.56-5.16-4.86-5.16-3,0-4.92,2.22-4.92,5.22Z"/><path d="M8.94,129.32l7-1.08c1.62-.24,2.16-1,2.16-2,0-1.74-1.5-3.24-4.38-3.24a4.8,4.8,0,0,0-5.1,4.38L.72,125.72c.36-4.26,4.32-9.9,13.08-9.9,9.66,0,13.2,5.4,13.2,11.52v14.58a29.31,29.31,0,0,0,.36,4.62H19.14a14.62,14.62,0,0,1-.3-3.36c-1.56,2.52-4.44,4.2-8.4,4.2-6.54,0-10.32-4.32-10.32-9.06C.12,133,4,130,8.94,129.32Zm9.18,5.52v-1.32l-5.64.9c-1.92.3-3.36,1.2-3.36,3.3,0,1.56,1,3.06,3.54,3.06C15.36,140.78,18.12,139.46,18.12,134.84Z"/><path d="M45.12,116.72h5.82v8H45.12v11.16c0,2.46,1.32,3.12,3.3,3.12a11.24,11.24,0,0,0,2.4-.3v7.56a10.86,10.86,0,0,1-4.74.84c-6.18,0-10-3.66-10-9.6V124.7H30.84v-8h1.5c3.12,0,4.62-2.1,4.62-4.86V108h8.16Z"/><path d="M86.46,131.6a15.42,15.42,0,0,1-15.84,15.84,15.81,15.81,0,1,1,0-31.62C79.56,115.82,86.46,122.36,86.46,131.6Zm-9.12,0c0-5-3.24-7.38-6.72-7.38s-6.72,2.34-6.72,7.38S67.2,139,70.62,139,77.34,136.64,77.34,131.6Z"/><path d="M110.4,125.72a12.36,12.36,0,0,0-2.88-.3c-3.66,0-7,2.16-7,8.1v13H91.44V116.72h8.82v4c1.56-3.36,5.34-4.32,7.74-4.32a9,9,0,0,1,2.4.3Z"/></g></g></svg>
