<svg xmlns="http://www.w3.org/2000/svg" viewBox="0 0 515.3 672.87">
    <defs><style>.cls-1{fill:none;stroke:#ffe100;stroke-miterlimit:10;opacity:0.51;}</style></defs>
    <title>Dita</title>
    <g id="Layer_2" data-name="Layer 2">
        <g id="Layer_1-2" data-name="Layer 1">
            <path class="cls-1" d="M59.22,145c-7,16.43-6.43,34.93-5.77,52.76.69,18.85,1.47,38.12,8.31,55.7,2.82,7.25,6.68,14.31,7.22,22.07.51,7.42-2.08,14.65-3.45,22-4.74,25.44,5.5,51,15.53,74.89l28.57,68c5.94,14.14,12.39,28.95,24.59,38.25,13.46,10.26,31.61,12,48.47,10.61a163.19,163.19,0,0,0,150-171.56c.23,8.88,3.71,11.64,6.61,11.78a38.69,38.69,0,0,0,9-.4c5.34-.73,9.76-6.16,12.5-9.33,21-24.24,29-59.08,20.82-90.07-2.88-10.86-8.41-23.93-22-21.4-7.6,1.42-15.52,5.31-17.46,13.3-2.67,11-5.14,19.9-13.29,23.2-11.85,4.8-22.87-9.84-29.87-20.54-25.83-39.5-42.08-64.83-78.78-96.15-6.1-5.21-8.18-15.25-8-23.27.18-10.44,8.86-17.12,17-23.65,17.48-14,27.85-35,47.7-42.64-19.85,7.6-33,28-47.2,40-20.34,17.26-46.84,26.41-73,31.5-22.24,4.33-46.4-1.33-67.44,7.28C75.83,122.86,65,131.34,59.22,145Z"
            />
            <path class="cls-1" d="M164.31,235.78c4.16-2.46,7.59-6,11.49-8.82,10.69-7.8,24.94-12.72,38.11-11.41s25.49,14.25,43,11.7c-15.32-3.93-26-15.24-37.37-19.79-12.84-5.12-25.44-2-38.63,2.08-9.24,2.88-27,10-32.8,18.25C140.22,239,156.11,240.62,164.31,235.78Z"
            />
            <path class="cls-1" d="M268.85,273.76c2.18-.46,4.46,2.79,3,5.08s-4.5,2.56-5.93.23S266.67,274.22,268.85,273.76Z" />
            <path class="cls-1" d="M82.31,232.58c15.68,5.4,32.69,20,36.26,34.87,2.25,9.35.29,21.2-2,30.55a269,269,0,0,1-8.74,30c-2.36,6.56-5.81,13.6-5.72,20.57s4.27,12.3,10.4,15.62c13.94,7.53,21.82-8.66,33.68-9.18,5-.22,9.42,4.91,14.37,5.57s12-1.85,12.38-6.18-2.07-5.84-3.55-8.83"
            />
            <path class="cls-1" d="M131.9,397.27c1.56.59,3,1.65,4.63,1.84a10.45,10.45,0,0,0,4.29-.86c9.41-3.09,19.67-2,29.34.17s18.56,5.41,28.43,6.24c-14.43,4.36-29.45.91-44.34,3.23-5.12.8-10.24,2.26-15.4,1.78-2.21-.21-4.45-.77-6.62-.29a19.72,19.72,0,0,0-3.6,1.43c-4.71,2.09-6.43,3.54-11.46,2.4,3.12,2.31,3.54,1.8,7.42,2,13.59.76,23.9-.75,37.39-2.55,11.23-1.5,25.33-3.86,36.19-7.1a33,33,0,0,1-6.75,10.27c-3.34,3.16-11.95,10.24-13.24,11-7.44,4.26-18.48,6.21-23.63,7.4a44.5,44.5,0,0,1-19,.47c-10.48-2.19-16.49-11.15-19.72-20.63-1.23-3.62.2-7.49,2.64-10.93C121.66,398.71,126.69,395.31,131.9,397.27Z"
            />
            <path class="cls-1" d="M56.1,231.84c.89-2.91,2.52-4,5.5-4.52s6.56.94,9.55,1.5c10.18,1.94,25.37,10.3,27.88,16.54.92,2.29-2.92,2.56-5.34,3-8,1.45-14.65-1.49-22.36-4.12-2.34-.8-11.17-2.45-12.89-.68" />
            <path class="cls-1" d="M168.79,275c1.29-4.85,3.46-14.86,5.75-19.33s5.68-8.54,10.2-10.73a29.11,29.11,0,0,1,7.75-2.25c12-2.1,25.34-1.24,34.66,6.55,2.11,1.76,4.91,5.39,7.64,5.74" />
            <path class="cls-1" d="M117.4,274a28.63,28.63,0,0,1-9.56-7.37c-1-1.17-7.26-5.52-10.43-6.52C90.7,258,85.66,257.26,79,259.49a8.84,8.84,0,0,0-5.06,3.57c-1.57,2.71-2.39,8.69-5.25,10" />
            <path class="cls-1" d="M182.36,252.78c5.5-3.72,12.37-4.63,19-5.37,8.51-1,17-1.15,23.75,4.09a29.13,29.13,0,0,0,5.15,2.66A13.22,13.22,0,0,0,236,255c5.43-.09,10.85-1.85,16.24-2.47a17.28,17.28,0,0,1-7.41,6.62c-5.44,2.36-11.81,4.66-17.47,2.88-5-1.57-8.78-5.72-13.65-7.6a32.6,32.6,0,0,0-8.71-1.65c-7.64-.73-15.5-.85-21.47,4-4.29,3.47-8.56,12.32-13.72,14C172.33,266.37,178.82,255.17,182.36,252.78Z"
            />
            <path class="cls-1" d="M107.1,268.14C103,265.4,98.8,262.6,94,261.62A19.06,19.06,0,0,0,79,265c-2.28,1.71-4.15,3.92-6.4,5.66-6.55,5.06-15.7,5.6-23.71,3.51,1.51,3.52,5.74,5,9.56,5.22A26.84,26.84,0,0,0,71,277.11c5.06-2.27,9.42-6.1,14.78-7.51,5.51-1.45,11.32-.14,16.87,1.17,3.09.73,8.28,3.08,11.28,2.08A45.09,45.09,0,0,0,107.1,268.14Z"
            />
            <path class="cls-1" d="M197.51,252.3C190,263.44,201,269.7,205.9,269a24,24,0,0,0,7.85-2.46c4.12-2,6.2-6.89,5.77-9.06" />
            <path class="cls-1" d="M93.15,268.94c-2.87,7.43-.15,11.73,2.07,12.79a18.11,18.11,0,0,0,7,2.08,16.2,16.2,0,0,0,8.14-2c2.2-1.33,5.45-3.9,3.21-8.87" />
            <path class="cls-1" d="M348.3,244.79c1.5-5.42,6.29-12.39,11.07-15.35,3.67-2.27,8.62-3.67,10.33.28,4.33,10,8.67,30.94,8.22,41.82-.29,7.08-3.85,14.21-9.8,18.07-2.84,1.84-7.59,2.11-6.92,8.94" />
            <path class="cls-1" d="M319.78,390.45c-.09,15.51.63,25.51,1.61,33.14,1.12,8.69,1.15,10.57,5,18.44,5.25,10.75,9.88,15.13,14,20.8,13.77,19.1,25.91,38,44.85,52.33s49.7,39,55.79,42.47,11.1,8.6,22.75,10.54c12.51,2.09,21.89.81,31.68-5.78,14.4-9.7,18.72-28.9,19.28-46.26,1.48-45.75-14.67-90-30.6-132.93-3.66-9.87-7.47-20-14.47-27.86a42.82,42.82,0,0,0-22.77-13.29,50.92,50.92,0,0,1-6.66-1.57C427.75,336,426,319.38,426.27,306.13c1.2-50.34,1.79-101.39-10.61-150.19s-39.45-95.86-82.49-122C317.82,24.61,299.77,18,282.06,21,251.26,4.14,215.13-5.67,181.64,4.85c-21.79,6.85-41.37,19.25-60.1,32.32C108,46.65,94.6,56.61,83.13,68.55,64.72,87.72,51.77,111.35,39,134.68,23.34,163.45,7.17,194.2,9.11,226.91c2.1,35.49,25.49,68.66,20.6,103.87-2.15,15.46-9.61,29.57-15.33,44.09C-5.69,425.86-3.91,485,19.19,534.73S74.71,611.68,127.8,638.41c19.05,9.6,54,12,67.33-4.64,8.88-11,11.61-26.59,11.25-40.74l-1.49-57.86c-.42-16.42,2-26.07-15-46.67"
            />
            <path class="cls-1" d="M400.13,526.65c-37.82-28.43-46-27.38-56.78-27.3-13.81.11-23.51,2.84-42.47,13.65-10.08,5.75-18.68,14.17-27.48,21.74s-7,8-15.74,14.86c-13.82,10.83-22,28.32-29.74,44.07-9,18.2-30,24.84-55,79" />
        </g>
    </g>
</svg>
