
<svg xmlns="http://www.w3.org/2000/svg" xmlns:xlink="http://www.w3.org/1999/xlink" version="1.1" x="0px" y="0px" viewBox="0 0 100 125" style="enable-background:new 0 0 100 100;" xml:space="preserve"><path d="M83.857193,39.195076c0.119339-0.7263832,0.1864395-1.4640656,0.1864395-2.2097511  c0-6.3632641-4.4094696-11.7132759-10.3327179-13.1621952V23.501936c0-1.1870632-0.9658051-2.1528721-2.1530762-2.1528721  h-6.3507843c0.0462646-1.0278625-0.5610275-1.9782677-1.5368614-2.3499298  c-12.178215-4.6422396-22.0567398-1.530735-25.7380905,0.0217361c-0.9263344,0.3909626-1.5008736,1.3327026-1.4519958,2.3281937  h-6.4528732c-1.1872692,0-2.1530781,0.9658089-2.1530781,2.1528721v0.0520592  c-6.6347847,0.8738422-11.7738457,6.5618362-11.7738457,13.4313297c0,0.6857834,0.058466,1.3679237,0.1611214,2.0422211  C12.401886,50.3099518,14.3364,61.1712265,16.6408329,68.2988663c0.6069641,1.8778915,2.2738552,3.1037064,4.2464848,3.1229858  c0.015789,0,0.0313721,0,0.0473671,0c1.9517136,0,3.6200409-1.1880875,4.2585812-3.0380936L31.21768,50.9309883l4.0505543,0.9593735  c2.5941505,0.6139374,4.602047,2.700985,5.1155052,5.3170776L45.0721169,81.09552  c0.6389503,3.2546387,3.3194313,4.7019119,5.7140617,4.7019119c0.0200958,0,0.0401917,0,0.0602875-0.0004044  c2.4093933-0.0246124,5.0993042-1.5235596,5.6767426-4.8175659l4.1486702-23.661705  c0.4703979-2.6845779,2.4881363-4.8249435,5.140316-5.4528198l3.1024323-0.7348137l5.9556656,17.2536354  c0.6385422,1.8500061,2.3068695,3.0380936,4.2585831,3.0380936c0.0159988,0,0.0315781,0,0.0475769,0  c1.9726257-0.0192795,3.6393127-1.2450943,4.2466888-3.1229858C85.7157593,61.2065735,87.6401749,50.4169159,83.857193,39.195076z   M72.031105,23.501936v0.0216331c-0.5055389-0.0574398-1.0185089-0.0899162-1.5391464-0.0899162h-5.5189743l0.0483932-0.4047775  h6.5364609C71.8186646,23.0288754,72.031105,23.241106,72.031105,23.501936z M30.0272331,23.0288754h6.6399879l0.0483932,0.4047775  h-7.063633c-0.0283737,0-0.0562859,0.0019741-0.0846348,0.0021534  C29.600872,23.2075806,29.7896519,23.0288754,30.0272331,23.0288754z M23.6053219,67.8358459  c-0.4902878,1.4202118-1.7103653,1.9205475-2.701601,1.9061966c-0.9848785-0.0094376-2.2022896-0.5294571-2.6646881-1.9599152  c-2.0539074-6.3530693-3.8035402-15.7688065-1.1470013-25.7069244c0.2067719,0.5111504,0.4433289,1.0105095,0.7120781,1.4932098  c1.9744759,3.5466309,5.6543922,6.0417404,9.8434601,6.6749496l1.3504925,0.2042351  c0.1912899,0.0289116,0.3806591,0.0723839,0.5712051,0.1106262L23.6053219,67.8358459z M65.4250565,50.2302399  c-3.3059006,0.7828979-5.8211021,3.4510727-6.4075623,6.7971611L54.868824,80.6891022  c-0.4392281,2.5045471-2.4504089,3.412117-4.0395851,3.4281082c-0.0143509,0.000412-0.0291176,0.000412-0.0434685,0.000412  c-1.5826149,0-3.5798531-0.8735352-4.0650101-3.3456726L42.031971,56.8842735  c-0.6397705-3.2611961-3.1428757-5.8629341-6.3765945-6.6286087l-5.2900085-1.2528877  c-0.3668423-0.0869408-0.7422981-0.1595306-1.1161137-0.2161255l-1.3506966-0.2042351  c-3.6784821-0.5561104-6.9033813-2.7358437-8.6266632-5.8309441c-0.9758568-1.7530136-1.4917755-3.7467651-1.4917755-5.7661476  c0-6.5461731,5.3256874-11.8718605,11.8718624-11.8718605h7.2644844l0.8891182,7.4359093  c0.0510597,0.4267197,0.4135971,0.7402458,0.8329315,0.7402458c0.0332184,0,0.0668488-0.0018425,0.1006813-0.0059433  c0.460556-0.0551605,0.789463-0.4730644,0.7343025-0.9336166l-1.3195267-11.0356503  c-0.0383453-0.3211155,0.1349258-0.6209049,0.4310265-0.7457848c2.7268181-1.1503582,12.5501823-4.5497589,24.4872551,0.000206  c0.3108635,0.1183167,0.5003319,0.4306145,0.4605522,0.7597275l-1.3115311,10.9698277  c-0.0549545,0.4605522,0.2739525,0.8784561,0.7345047,0.9336166c0.4539948,0.0545425,0.8784561-0.2733383,0.9338226-0.7343025  l0.8826065-7.3842354h5.7197495c6.5461807,0,11.8718643,5.3256874,11.8718643,11.8718605  c0,2.3218384-0.6701202,4.5704727-1.937355,6.5029106c-1.6564331,2.5244331-4.3984299,4.3522911-7.523468,5.0150299  l-1.7753677,0.3764801L65.4250565,50.2302399z M81.8245316,67.7821274  c-0.4621964,1.4304581-1.6798096,1.9504776-2.6644821,1.9599152c-0.9891891,0.0139389-2.211319-0.4859848-2.7018051-1.9061966  l-5.9008408-17.0947914l0.9376907-0.2220993l1.7560883-0.3723793c3.5552444-0.7537842,6.6823349-2.8449326,8.5794983-5.736824  c0.4636841-0.7069016,0.8491821-1.4538651,1.1701508-2.225563C85.6154099,52.0818062,83.8709259,61.4519234,81.8245316,67.7821274z   M50.5950661,45.773983c-4.5079269,0-8.1751289,3.667202-8.1751289,8.1751328s3.667202,8.1755409,8.1751289,8.1755409  s8.1751328-3.667614,8.1751328-8.1755409S55.1029968,45.773983,50.5950661,45.773983z M50.5950661,60.4448471  c-3.5814896,0-6.4953194-2.9138298-6.4953194-6.4957314c0-3.5814896,2.9138298-6.4953232,6.4953194-6.4953232  c3.5814934,0,6.4953232,2.9138336,6.4953232,6.4953232C57.0903893,57.5310173,54.1765594,60.4448471,50.5950661,60.4448471z   M53.4691162,49.9571037l-2.1128845-0.8677902c-0.5007439-0.2058754-1.0523415-0.2038269-1.551857,0.004509l-2.1083755,0.8809166  c-0.4999237,0.209156-0.888298,0.5999908-1.0933533,1.1007347l-0.867382,2.1128883  c-0.2058754,0.5007439-0.2042351,1.0519295,0.0045128,1.551857l0.8809166,2.1079636  c0.208744,0.4991035,0.5995789,0.8874779,1.1003227,1.0933533l2.1141167,0.8682022  c0.2485275,0.1017075,0.5093575,0.1525612,0.7697792,0.1525612c0.2649307,0,0.5294495-0.052494,0.7812576-0.1574821  l2.1079636-0.8809166c0.4995155-0.209156,0.8878899-0.5999908,1.0937653-1.1007347l0.8669739-2.1128883  c0.2062836-0.501152,0.2046432-1.0523415-0.0041046-1.5518532l-0.8809128-2.1075554  C54.3639793,50.5579147,53.9624786,50.1592903,53.4691162,49.9571037z M53.9009628,54.0717392l-0.8669701,2.1132965  c-0.0356827,0.0861206-0.1021194,0.1529694-0.1878319,0.1886482l-2.1079636,0.8809166  c-0.0853043,0.0356789-0.1796303,0.0360909-0.2657509,0.0012321l-2.1128883-0.867794  c-0.0844841-0.0348587-0.1533813-0.1033478-0.188652-0.1878281l-0.8809166-2.1079674  c-0.0352669-0.0840721-0.0356789-0.1808586-0.0008202-0.2653427l0.867794-2.1137047v-0.000412  c0.0344505-0.0844803,0.1025276-0.1529694,0.1870117-0.1878281l2.1083755-0.8809166  c0.0426483-0.0180435,0.0881729-0.0270691,0.1336937-0.0270691c0.0447044,0,0.0898132,0.0086136,0.1316452,0.0258369  l2.1137085,0.868206c0.0844803,0.0344467,0.1529694,0.1029358,0.1882401,0.1874199l0.8809166,2.1079636  C53.9358215,53.8904686,53.9362335,53.9868469,53.9009628,54.0717392z M51.3881683,53.9492188  c0,0.4379692-0.3550262,0.7929993-0.7929993,0.7929993c-0.4379692,0-0.7930222-0.3550301-0.7930222-0.7929993  c0-0.437973,0.3550529-0.7929993,0.7930222-0.7929993C51.0331421,53.1562195,51.3881683,53.5112457,51.3881683,53.9492188z   M57.3606529,23.4244251H44.0095215c-1.3869934,0-2.5156136,1.128624-2.5156136,2.5160255  c0,1.3871975,1.1286201,2.5158195,2.5156136,2.5158195h13.3511314c1.3869896,0,2.5156136-1.1286221,2.5156136-2.5160255  C59.8762665,24.5530491,58.7476425,23.4244251,57.3606529,23.4244251z M57.3606529,26.7764587H44.0095215  c-0.4609642,0-0.835804-0.3750439-0.835804-0.8362141c0-0.4609623,0.3748398-0.8360081,0.835804-0.8360081h13.3511314  c0.4609604,0,0.835804,0.3750458,0.835804,0.8362141C58.1964569,26.4014149,57.8216133,26.7764587,57.3606529,26.7764587z   M53.8993225,39.817955c0-1.8219109-1.4821358-3.3042564-3.3042564-3.3042564c-1.8221169,0-3.3042526,1.4823456-3.3042526,3.3042564  c0,1.8219147,1.4821358,3.3042564,3.3042526,3.3042564C52.4171867,43.1222115,53.8993225,41.6398697,53.8993225,39.817955z   M48.970623,39.817955c0-0.8956795,0.7287636-1.6244431,1.6244431-1.6244431c0.8956833,0,1.6244469,0.7287636,1.6244469,1.6244431  s-0.7287636,1.6244469-1.6244469,1.6244469C49.6993866,41.4424019,48.970623,40.7136345,48.970623,39.817955z   M33.2035332,34.9196014H31.609848v-1.5938911c0-0.5819473-0.4732685-1.0552139-1.0552139-1.0552139h-3.0661869  c-0.5819454,0-1.0552139,0.4732666-1.0552139,1.0552139v1.5938911h-1.5936871c-0.5819454,0-1.055212,0.4732666-1.055212,1.0552139  v3.0659828c0,0.5819473,0.4732666,1.0552139,1.055212,1.0552139h1.5936871v1.5936852  c0,0.5819473,0.4732685,1.0554199,1.0552139,1.0554199h3.0661869c0.5819454,0,1.0552139-0.4734726,1.0552139-1.0554199v-1.5936852  h1.5936852c0.5819473,0,1.0552139-0.4732666,1.0552139-1.0552139v-3.0659828  C34.2587471,35.392868,33.7854805,34.9196014,33.2035332,34.9196014z M32.5789375,38.4161987h-1.5936871  c-0.5819473,0-1.0552139,0.4732704-1.0552139,1.0552139v1.5938911h-1.8169918v-1.5938911  c0-0.5819435-0.4732666-1.0552139-1.0552139-1.0552139h-1.5936871v-1.8167839h1.5936871  c0.5819473,0,1.0552139-0.4734726,1.0552139-1.0554199v-1.5936852h1.8169918v1.5936852  c0,0.5819473,0.4732666,1.0554199,1.0552139,1.0554199h1.5936871V38.4161987z M29.0214386,28.8011723  c-4.8009529,0-8.7066345,3.9056835-8.7066345,8.7066364s3.9056816,8.7066307,8.7066345,8.7066307  s8.7066345-3.9056816,8.7066345-8.7066307S33.8223915,28.8011723,29.0214386,28.8011723z M29.0214386,44.5346298  c-3.8745136,0-7.026825-3.1523094-7.026825-7.0268211s3.1523113-7.026825,7.026825-7.026825s7.026825,3.1523094,7.026825,7.026825  S32.8959503,44.5346298,29.0214386,44.5346298z M72.9563141,44.0757179c1.5092545,0,2.7401199-1.1999054,2.796875-2.6953201  c0.6015244-0.3824272,1.1245422-0.887043,1.5273514-1.4751129c1.4697266-0.0846901,2.6402588-1.3036385,2.6402588-2.7940559  c0-1.4195671-1.0619812-2.593071-2.4328461-2.7748299c-0.430542-0.7426834-1.0380707-1.3719444-1.7672424-1.8262444  c-0.2116928-1.3368301-1.3687668-2.3632069-2.7643967-2.3632069c-1.3957062,0-2.5528564,1.0265064-2.7644501,2.3634624  c-0.7288437,0.4542503-1.3370056,1.0834846-1.7675705,1.8260422c-1.3707199,0.1819344-2.4324646,1.3553352-2.4324646,2.7747765  c0,1.4904175,1.1705246,2.7093925,2.6402588,2.7940788c0.4028854,0.5880737,0.9259491,1.0926895,1.5273514,1.475193  C70.2162399,42.8758659,71.4470825,44.0757179,72.9563141,44.0757179z M70.3924866,39.4095879  c0.7263565-0.5068703,1.2034912-1.3474159,1.2034912-2.2983589c0-1.0238876-0.5537491-1.9186707-1.3757095-2.4075737  c0.0997849-0.1209564,0.2052078-0.2351723,0.319931-0.3420334c0.4870605,0.8296547,1.3863525,1.3894806,2.4161148,1.3894806  c1.0297852,0,1.9290771-0.5598259,2.4161377-1.3895073c0.1147232,0.1068611,0.220253,0.2210007,0.3200607,0.3419571  c-0.8220596,0.4888763-1.3758621,1.383709-1.3758621,2.4076767c0,0.9509697,0.4771576,1.7915421,1.2035446,2.2984123  c-0.0865326,0.0903244-0.1778641,0.174118-0.2732391,0.2550125c-0.5075836-0.7204628-1.3442383-1.1932945-2.2906418-1.1932945  c-0.9463577,0-1.7829285,0.4727821-2.2905426,1.1931648C70.5703964,39.5836296,70.4790192,39.4998894,70.3924866,39.4095879z   M72.9563141,42.3959084c-0.6188583,0-1.1224747-0.5034103-1.1224747-1.1222687  c0-0.6188545,0.5036163-1.1224709,1.1224747-1.1224709s1.122467,0.5036163,1.122467,1.1224709  C74.0787811,41.892498,73.5751724,42.3959084,72.9563141,42.3959084z M78.2409897,37.1112289  c0,0.6188583-0.5036163,1.1224709-1.122467,1.1224709c-0.6188583,0-1.1220627-0.5036125-1.1220627-1.1224709  c0-0.6188545,0.5032043-1.1222649,1.1220627-1.1222649C77.7373734,35.9889641,78.2409897,36.4923744,78.2409897,37.1112289z   M72.9563141,31.8267593c0.6188583,0,1.122467,0.5034103,1.122467,1.1222649s-0.5036087,1.1222649-1.122467,1.1222649  s-1.1224747-0.5034103-1.1224747-1.1222649S72.3374557,31.8267593,72.9563141,31.8267593z M67.6716385,37.1112289  c0-0.6188545,0.5036163-1.1222649,1.122467-1.1222649c0.6188583,0,1.1220627,0.5034103,1.1220627,1.1222649  c0,0.6188583-0.5032043,1.1224709-1.1220627,1.1224709C68.1752548,38.2336998,67.6716385,37.7300873,67.6716385,37.1112289z"/>
<!-- <text x="0" y="115" fill="#000000" font-size="5px" font-weight="bold" font-family="'Helvetica Neue', Helvetica, Arial-Unicode, Arial, Sans-serif">Created by Ozza Okuonghae</text><text x="0" y="120" fill="#000000" font-size="5px" font-weight="bold" font-family="'Helvetica Neue', Helvetica, Arial-Unicode, Arial, Sans-serif">from the Noun Project</text> -->
</svg>
