<svg xmlns="http://www.w3.org/2000/svg" xmlns:xlink="http://www.w3.org/1999/xlink" version="1.1" x="0px" y="0px" viewBox="0 0 30 37.5" xml:space="preserve">
    <g transform="translate(-510 -320)">
        <g xmlns="http://www.w3.org/2000/svg" xmlns:xlink="http://www.w3.org/1999/xlink">
            <path d="M538.879,322.685c-12.275,4.395-14.488,14.147-15.906,15.876c-1.416,1.729-1.826,0.816-1.826,0.816    c-1.127-4.973-1.943-6.799-1.943-6.799c-0.451-1.007-2.859-0.911-5.381,0.217c-2.521,1.127-4.199,2.857-3.748,3.865    c0,0,2.031,14.343,10.279,10.74c9.646-4.213,5.146-17.9,19.342-22.889L538.879,322.685z M514.23,333.707    c1.174-0.524,2.363-0.825,3.268-0.825c0.445,0,0.668,0.073,0.764,0.118c0,0,0.004,0.001,0.004,0.002    c-0.105,0.407-1.082,1.576-3.219,2.531c-1.174,0.524-2.365,0.825-3.268,0.825c-0.447,0-0.672-0.074-0.766-0.118    c0,0-0.002-0.001-0.002-0.002C511.119,335.83,512.096,334.662,514.23,333.707z"
            />
        </g>
    </g>
    <text x="0" y="45" fill="#000000" font-size="5px" font-weight="bold" font-family="'Helvetica Neue', Helvetica, Arial-Unicode, Arial, Sans-serif">Created by Hea Poh Lin</text>
    <text x="0" y="50" fill="#000000" font-size="5px" font-weight="bold" font-family="'Helvetica Neue', Helvetica, Arial-Unicode, Arial, Sans-serif">from the Noun Project</text>
</svg>
