<svg xmlns="http://www.w3.org/2000/svg" data-name="Sonia Sotomayor" viewBox="0 0 100 125" x="0px" y="0px"><title>Sonia Sotomayor</title><path d="M98.89363,98.97135c-.05269-1.1917-.15854-2.89816-.393-4.9385a55.44131,55.44131,0,0,0-2.78282-12.99816,36.21179,36.21179,0,0,0-4.4975-9.55539c-2.48822-3.56585-5.15377-5.73687-8.29638-8.29644a68.60952,68.60952,0,0,0-7.487-5.26113,88.84405,88.84405,0,0,0-9.7129-5.26113q-11.33166,11.534-22.66339,23.06807a53.424,53.424,0,0,0-2.02348-9.71284c-.48256-1.56871.59464-4.81017.04846-6.15617-1.792-.96869-1.34323-1.26251-2.41868-1.869a106.96844,106.96844,0,0,0-9.97324,4.38283C24.7175,64.432,24.898,64.205,22.42081,65.61115c-2.27724,1.29254-3.91011,2.38738-4.53224,2.81086a47.35478,47.35478,0,0,0-4.58668,3.468,23.47077,23.47077,0,0,0-3.468,3.468,22.22482,22.22482,0,0,0-1.79,2.68488,36.84011,36.84011,0,0,0-3.70288,8.91477,40.67047,40.67047,0,0,0-1.04252,6.25508c-.345,2.99133-.35768,4.791-.09021,5.75868,6.47283.01438,21.24361.02314,37.47471.02574a49.069,49.069,0,0,1-.02145-6.298,77.585,77.585,0,0,1,1.46986-9.84872c.36928-1.97593.76369-3.948,1.1726-5.86109a.56794.56794,0,0,1,.24747-.36058.57378.57378,0,0,1,.43211-.0783.57134.57134,0,0,1,.43695.67766c-.40746,1.91116-.79994,3.87163-1.16487,5.82822a75.77058,75.77058,0,0,0-1.45391,9.71435,48.1397,48.1397,0,0,0,.02513,6.2178l.0006.00888C64.42178,99.00059,89.51624,98.99219,98.89363,98.97135ZM16.935,76.86067c-.23829.64962-.50268,1.29634-.78641,1.92373a25.84619,25.84619,0,0,1-1.22867,2.37808c-.17159.30064-.34076.59839-.49688.9029-.19624.40215-.35236.75112-.449.97443A34.15468,34.15468,0,0,0,12.25181,90.03a.56825.56825,0,0,1-.56358.47852.58755.58755,0,0,1-.09135-.00773.56934.56934,0,0,1-.47175-.65639,35.18938,35.18938,0,0,1,1.801-7.2599c.14742-.33931.31418-.70182.46982-1.01987.17981-.35091.35719-.66219.52878-.96186a25.18831,25.18831,0,0,0,1.18324-2.28914c.27406-.60709.5283-1.22867.755-1.84639a.57667.57667,0,0,1,.73179-.33931h.00048a.56933.56933,0,0,1,.33979.73276Zm3.86051,5.54208-.13582-.0087.10875.059c-.04833.08894-.09087.16724-.12567.233a20.5,20.5,0,0,0-1.94645,9.24937.57157.57157,0,0,1-.9812.38861.56708.56708,0,0,1-.16144-.407,21.61559,21.61559,0,0,1,2.08082-9.76848c.04205-.07927.09522-.17691.15757-.291.4007-.73662,1.1465-2.10837,1.987-4.06593.465-1.0827.89178-2.19344,1.26927-3.29934a.57078.57078,0,0,1,1.05322-.06767.56257.56257,0,0,1,.028.436c-.38861,1.1378-.826,2.27561-1.30118,3.38151C21.96519,80.25378,21.17492,81.70576,20.79549,82.40275Zm7.53058-1.801-.07009.10247-.0029.00387-.05123.07444a14.884,14.884,0,0,0-.97636,1.58635,19.02676,19.02676,0,0,0-1.6603,5.13317l-.09377.40215a36.01456,36.01456,0,0,0-.8884,6.34734.57067.57067,0,0,1-.57035.54328.58492.58492,0,0,1-.4239-.18851.5661.5661,0,0,1-.14694-.41181,37.09608,37.09608,0,0,1,.9174-6.54841l.0928-.40118a20.11485,20.11485,0,0,1,1.76374-5.41061A16.33821,16.33821,0,0,1,27.311,80.06141a12.81831,12.81831,0,0,0,1.21321-2.0697,15.65489,15.65489,0,0,0,1.22771-3.93156.56984.56984,0,0,1,.65784-.465.57575.57575,0,0,1,.3717.23394.56577.56577,0,0,1,.0957.42728,16.795,16.795,0,0,1-1.31761,4.2177A13.43781,13.43781,0,0,1,28.32606,80.60179Zm9.13481-5.22307a27.95907,27.95907,0,0,1-2.18715,6.46238c-.44758.92706-.80429,1.537-1.11944,2.0755-.25714.43888-.492.842-.73179,1.334a16.36087,16.36087,0,0,0-1.40461,8.28364.574.574,0,0,1-.53313.60709l-.03287.001a.57288.57288,0,0,1-.57374-.53555,17.481,17.481,0,0,1,1.51675-8.85592c.26294-.53942.50945-.9609.77094-1.40751.30886-.52782.65687-1.1233,1.07835-1.99913a26.76438,26.76438,0,0,0,2.09773-6.19653.57128.57128,0,0,1,1.119.231Zm2.04263-3.04123c-1.34129-.0638-2.69032-.18657-4.01566-.36638a52.92816,52.92816,0,0,1-7.92209-1.55832c-.16531-.02707-4.31-.71826-6.91721.0725-.23636.0725-.46692.16047-.47562.16337l-1.26637.53072a.55222.55222,0,0,1-.43646.001.57052.57052,0,0,1-.00387-1.05467l1.27991-.53652c.074-.028.31369-.1189.57035-.19624,2.95278-.9,7.30485-.1305,7.48853-.09667a52.61712,52.61712,0,0,0,7.83557,1.54285c1.28668.174,2.59558.29388,3.89.35671a.57115.57115,0,0,1-.02707,1.14167ZM59.21593,74.7001a19.791,19.791,0,0,0-1.76036,4.11717,87.30357,87.30357,0,0,0-2.45541,10.48384.57593.57593,0,0,1-.56262.46885.64382.64382,0,0,1-.10344-.00967.572.572,0,0,1-.45725-.669,88.49139,88.49139,0,0,1,2.49118-10.625,20.94919,20.94919,0,0,1,1.86476-4.34917.56623.56623,0,0,1,.35284-.262.55142.55142,0,0,1,.43018.06284A.57156.57156,0,0,1,59.21593,74.7001ZM67.18249,73.28a62.24079,62.24079,0,0,0-6.008,20.36059.57231.57231,0,0,1-.56745.50462.50968.50968,0,0,1-.06574-.00387.56087.56087,0,0,1-.38281-.21267.57208.57208,0,0,1-.1189-.42051,63.42154,63.42154,0,0,1,6.11823-20.73374.57142.57142,0,0,1,.76369-.26.57348.57348,0,0,1,.261.76562Zm7.11586-.78883-.01353.03a49.02159,49.02159,0,0,0-3.62415,10.99812c-.22137.90483-.41278,1.66272-.57712,2.31137-.25424,1.00343-.45435,1.79516-.58,2.42835a55.92529,55.92529,0,0,0-.9783,7.60985.57176.57176,0,0,1-.57035.53748l-.03093-.001a.57.57,0,0,1-.53942-.60322,57.18048,57.18048,0,0,1,.99763-7.76645c.12954-.65155.32384-1.41718.59162-2.47571l.04157-.16531c.15757-.62449.33448-1.32438.53555-2.14607a50.02111,50.02111,0,0,1,3.71792-11.25333.57834.57834,0,0,1,.33641-.28228.57112.57112,0,0,1,.69312.77819Zm6.84422,1.86186a54.8414,54.8414,0,0,0-2.23791,6.26614A45.38975,45.38975,0,0,0,77.33959,87.881,43.06217,43.06217,0,0,0,77.00511,94.24a.57146.57146,0,1,1-1.14264.02513,44.21155,44.21155,0,0,1,.34414-6.52908,46.37185,46.37185,0,0,1,1.60085-7.43487,56.04461,56.04461,0,0,1,2.28334-6.39567.57455.57455,0,0,1,.31514-.30741.57184.57184,0,0,1,.73662.755Zm3.425,11.17986a50.57907,50.57907,0,0,1,1.60085-11.321.56665.56665,0,0,1,.26294-.348.56043.56043,0,0,1,.434-.06187.57159.57159,0,0,1,.40891.698A49.23338,49.23338,0,0,0,86.269,94.39077a.573.573,0,0,1-.47755.65252.65917.65917,0,0,1-.087.00677.56938.56938,0,0,1-.56552-.48528A50.65834,50.65834,0,0,1,84.56759,85.53292ZM51.70324,71.49646a.56669.56669,0,0,1,.03287-.80816.57622.57622,0,0,1,.3862-.15274h.02223a63.82715,63.82715,0,0,0,6.94379-.1479,38.3598,38.3598,0,0,0,4.0988-.50655c.97733-.16531,1.9769-.33448,3.73049-.50462a44.11244,44.11244,0,0,1,12.00349.14984,37.13492,37.13492,0,0,1,4.992,1.17454.57086.57086,0,1,1-.33834,1.09044,36.1801,36.1801,0,0,0-4.83832-1.13877,43.43861,43.43861,0,0,0-11.70381-.14017c-1.71686.16821-2.69515.33351-3.64155.493a39.32759,39.32759,0,0,1-4.21674.522,65.27518,65.27518,0,0,1-7.07236.1508A.56247.56247,0,0,1,51.70324,71.49646Z"/><path d="M46.56618,52.61673a8.12132,8.12132,0,0,1-4.44924-1.30617.22373.22373,0,0,1,.24253-.376,7.72088,7.72088,0,0,0,2.06763.94,8.011,8.011,0,0,0,2.63638.28175,10.20692,10.20692,0,0,0,1.70514-.23729,15.045,15.045,0,0,0,2.19261-.61966.2238.2238,0,0,1,.15426.42017,15.49488,15.49488,0,0,1-2.25685.63779,10.71626,10.71626,0,0,1-1.77506.246C46.95642,52.609,46.78118,52.61673,46.56618,52.61673Z"/><path d="M46.76029,49.81042a1.36641,1.36641,0,0,1-.17633-.01169,1.34644,1.34644,0,0,1-.68-.29071,1.451,1.451,0,0,0-.60218-.28142,4.82708,4.82708,0,0,0-1.42809.09483c-.43808.0543-.74769.09942-1.06648.14585-.1796.02622-.362.05277-.5718.08172-.50014.06894-1.0088.13055-1.51178.18332a.22114.22114,0,0,1-.24581-.19927.22366.22366,0,0,1,.19905-.24581c.49817-.05222,1.002-.11329,1.49735-.18157.20845-.02873.39-.05517.56853-.08117.32163-.04687.63386-.09231,1.07588-.147a5.011,5.011,0,0,1,1.58082-.08762,1.89745,1.89745,0,0,1,.76408.35385.89221.89221,0,0,0,1.13421.02775,2.2612,2.2612,0,0,1,.92774-.33867,2.59954,2.59954,0,0,1,1.23079.159,6.2716,6.2716,0,0,0,1.023.24712,6.69776,6.69776,0,0,0,1.9326-.00033.22149.22149,0,0,1,.2528.19031.22375.22375,0,0,1-.19031.2528,7.14823,7.14823,0,0,1-2.06151-.00033,6.72688,6.72688,0,0,1-1.09008-.26252,2.15622,2.15622,0,0,0-1.042-.142,1.82625,1.82625,0,0,0-.75862.28186A1.42283,1.42283,0,0,1,46.76029,49.81042Z"/><path d="M38.13012,50.611a.22374.22374,0,0,1-.18813-.10215,3.06521,3.06521,0,0,1,.99831-4.29542.22373.22373,0,1,1,.22986.3839,2.61711,2.61711,0,0,0-.85235,3.66833.22389.22389,0,0,1-.18769.34533Z"/><path d="M56.36932,50.08627a.22376.22376,0,0,1-.19621-.3308,2.98535,2.98535,0,0,0,.2445-2.24494,2.821,2.821,0,0,0-.84077-1.27318.22369.22369,0,1,1,.2941-.33714,3.26777,3.26777,0,0,1,.97362,1.47638,3.38664,3.38664,0,0,1-.27858,2.593A.22361.22361,0,0,1,56.36932,50.08627Z"/><path d="M65.10829,42.69149a.22361.22361,0,0,1-.17392-.36412,1.69577,1.69577,0,0,0,.37516-1.04146,1.71562,1.71562,0,0,0-.45884-1.16688.22376.22376,0,0,1,.32687-.30568,2.16991,2.16991,0,0,1,.57945,1.47638,2.147,2.147,0,0,1-.47436,1.31841A.223.223,0,0,1,65.10829,42.69149Z"/><path d="M31.0657,42.26553a.22385.22385,0,0,1-.18266-.09417,3.49871,3.49871,0,0,1-.47807-3.10691.22384.22384,0,0,1,.42607.13743,3.04961,3.04961,0,0,0,.41689,2.71034.22383.22383,0,0,1-.18223.35331Z"/><path d="M50.86474,45.14739a.22374.22374,0,0,1-.1193-.41318,1.28409,1.28409,0,0,0,.41842-.41755,1.51425,1.51425,0,0,0,.16453-.97362,3.5483,3.5483,0,0,0-1.44666-2.12925.22383.22383,0,0,1,.26569-.3603A3.91248,3.91248,0,0,1,51.7739,43.301a1.93359,1.93359,0,0,1-.22811,1.24892,1.72943,1.72943,0,0,1-.56219.56317A.22246.22246,0,0,1,50.86474,45.14739Z"/><path d="M42.40107,45.07026a.22252.22252,0,0,1-.14923-.057,2.21837,2.21837,0,0,1-.5528-.75687,2.23978,2.23978,0,0,1,.45513-2.47556.22373.22373,0,1,1,.32032.31245,1.793,1.793,0,0,0-.36642,1.98176,1.77572,1.77572,0,0,0,.44224.6048.22374.22374,0,0,1-.14923.39045Z"/><path d="M40.49649,32.83748a3.58979,3.58979,0,0,0-1.4715-.31526,3.44963,3.44963,0,0,0-1.92113.65518c-.51235.35176-.99842.8716-.91667.99147.0774.11347.5883-.24379,1.40135-.4555a5.65173,5.65173,0,0,1,1.041-.13951,1.20708,1.20708,0,0,0-.24077.69494,1.23913,1.23913,0,0,0,2.47825,0,1.20948,1.20948,0,0,0-.07595-.37611c1.13376.42831,1.67172,1.11919,1.77244,1.01189C42.69627,34.76315,41.87778,33.44312,40.49649,32.83748Z"/><path d="M57.11324,33.188a3.18026,3.18026,0,0,0-1.91485-.59271,3.48051,3.48051,0,0,0-1.50454.41036,2.78753,2.78753,0,0,0-.86622.59265c-.39731.41465-.64509.9673-.54709,1.04863.06664.05534.24578-.14724.74545-.41858.11292-.06132.22107-.11419.32318-.161a1.17121,1.17121,0,0,0-.03945.19539,1.2384,1.2384,0,1,0,2.4768,0,1.20362,1.20362,0,0,0-.19878-.63246,4.96779,4.96779,0,0,1,.97836.10477c.80913.1702,1.20094.46734,1.27659.36475C57.92467,33.98852,57.5549,33.51514,57.11324,33.188Z"/><path d="M55.51672,29.37935a5.518,5.518,0,0,0-3.21305-.121,8.02553,8.02553,0,0,0-2.81772,1.13892.75193.75193,0,0,0-.343.56046.703.703,0,0,0-.00612.25393c.14874.93664,1.46043.43653,1.9294.126a14.71919,14.71919,0,0,1,1.35623-1.10233,4.55176,4.55176,0,0,1,1.631-.42464c.16685-.01521,1.625-.03558,1.48517-.25263a.69562.69562,0,0,0,.02914-.06727A.09528.09528,0,0,0,55.51672,29.37935Z"/><path d="M42.08894,29.66317a13.09961,13.09961,0,0,0-2.42255-1.04857c-1.97874-.65859-3.9182-.77977-5.47491.602-.11974.10629.05282.267.176.20778a4.55313,4.55313,0,0,1,3.56825-.46291,5.70459,5.70459,0,0,1,1.52975.84323c.94293.66183,1.2253,1.16167,2.12235,1.47482a1.28679,1.28679,0,0,0,1.15305.02888.78927.78927,0,0,0,.3097-.74972C42.98438,30.18323,42.61017,29.94292,42.08894,29.66317Z"/><path d="M79.03372,45.08355A10.79014,10.79014,0,0,0,78.011,41.94813a9.24752,9.24752,0,0,0-.70968-1.14c-.27424-.38728-.3459-.49948-.34547-.763a1.03194,1.03194,0,0,1,.264-.655,6.06257,6.06257,0,0,0,.50776-.90773,6.947,6.947,0,0,0,.41363-4.05016,10.00093,10.00093,0,0,0-1.09334-2.91284,18.096,18.096,0,0,0-.88562-1.5814l-.10791-.17739c-.47326-.78073-1.458-2.4049-2.21579-3.91374A33.60521,33.60521,0,0,1,72.07676,21.513c-.24361-.69657-.37949-1.13859-.52329-1.60653-.16694-.543-.35593-1.15859-.74442-2.27138-.49573-1.41935-.74442-2.13187-1.13527-3.025a21.81115,21.81115,0,0,0-2.2193-4.05173A18.39038,18.39038,0,0,0,63.54384,6.642a28.58689,28.58689,0,0,0-7.9172-4.32023,12.02677,12.02677,0,0,0-5.1954-.948,10.31694,10.31694,0,0,0-2.644.55,6.30179,6.30179,0,0,0-2.99078-.92175,7.37271,7.37271,0,0,0-3.29729.78955,26.30383,26.30383,0,0,0-4.48947,2.58326,29.591,29.591,0,0,0-4.29347,3.121A15.43311,15.43311,0,0,0,30.335,10.34846c-.07123.113-.11123.18343-.1737.294-.07625.13437-.18923.33375-.4558.77729q-.29753.49456-.59953.98664c-.3459.56624-.70376,1.1517-1.04464,1.73746a44.53874,44.53874,0,0,1-2.75152,4.12629c-.81191,1.11074-1.24148,1.605-1.69637,2.12831-.42891.49344-.87244,1.00361-1.64182,2.0442a18.981,18.981,0,0,0-3.13953,5.15673,14.46128,14.46128,0,0,0-.72672,5.36312c.09522,1.89763.239,4.76516,2.39052,6.90917A7.39939,7.39939,0,0,0,22.649,41.35512a15.50275,15.50275,0,0,0,.01662,3.60512,14.02946,14.02946,0,0,0,1.78773,5.50927,15.84483,15.84483,0,0,0,1.99992,2.62042,21.03362,21.03362,0,0,0,4.20955,3.8993,11.81516,11.81516,0,0,0,4.13765,2.02052,10.18884,10.18884,0,0,0,2.36412.27654,10.66372,10.66372,0,0,0,1.57711-.11836.55746.55746,0,0,0,.46456-.44939,11.27491,11.27491,0,0,0,1.96753,1.81679,11.89745,11.89745,0,0,0,5.25461,1.90113,15.1585,15.1585,0,0,0,2.13973.16452,10.62056,10.62056,0,0,0,4.49756-.94356,14.29051,14.29051,0,0,0,3.35281-2.29476c.26566-.24312.53924-.52389,1.08723-1.08663.8626-.88568,1.72719-1.81183,2.50393-2.68277.34173-.38324.64358-.72194.91782-1.03207a11.96254,11.96254,0,0,0,5.53483,2.89955,9.53775,9.53775,0,0,0,10.39756-3.58542,11.89621,11.89621,0,0,0,1.75522-3.21614,9.87008,9.87008,0,0,0,.6524-3.1376A10.23624,10.23624,0,0,0,79.03372,45.08355ZM66.48719,26.388A4.09889,4.09889,0,0,0,71.531,28.06925a.44727.44727,0,0,1,.58207.24826.44792.44792,0,0,1-.2482.58207,5.18077,5.18077,0,0,1-1.89.35852,4.92324,4.92324,0,0,1-1.632-.27672,5.02749,5.02749,0,0,1-2.62126-2.1297.44794.44794,0,0,1,.15074-.6144.44747.44747,0,0,1,.61482.15074ZM48.58956,6.38766a5.90759,5.90759,0,0,1,3.3893-.72255A6.98385,6.98385,0,0,1,56.091,7.895a20.42555,20.42555,0,0,1,2.59661,3.4632c.43785.65627.76279,1.1659,1.02385,1.57548a4.8912,4.8912,0,0,0,1.35247,1.68375,5.01222,5.01222,0,0,0,3.29209.74212.44746.44746,0,1,1,.0658.8925c-.20953.01535-.41671.02308-.6153.02308a5.60139,5.60139,0,0,1-3.25185-.92181,5.637,5.637,0,0,1-1.5898-1.92584c-.267-.419-.58908-.92416-1.02192-1.57239A19.67143,19.67143,0,0,0,55.477,8.54618a6.13806,6.13806,0,0,0-3.5873-1.99049,5.00628,5.00628,0,0,0-2.87538.6199.44756.44756,0,1,1-.42474-.78792ZM47.43,10.813V10.8129a.44853.44853,0,0,1,.62231.11558,33.43455,33.43455,0,0,0,7.35893,7.802,13.22494,13.22494,0,0,0,4.69574,2.53535,11.9398,11.9398,0,0,0,5.60878.14265.44754.44754,0,1,1,.18089.87661,13.55893,13.55893,0,0,1-2.73074.28415,12.5018,12.5018,0,0,1-3.29493-.44,14.052,14.052,0,0,1-4.99982-2.68519,34.33827,34.33827,0,0,1-7.55716-8.00927A.44856.44856,0,0,1,47.43,10.813ZM30.68988,15.1109v-.00012c.04175-.18573,1.06953-4.56155,5.011-5.70122a6.86048,6.86048,0,0,1,4.149.15624.44756.44756,0,1,1-.29388.8455,5.96445,5.96445,0,0,0-3.60693-.14217c-3.41969.98911-4.37691,4.99831-4.38609,5.03873a.4449.4449,0,0,1-.43634.34874.45292.45292,0,0,1-.0983-.01081A.44827.44827,0,0,1,30.68988,15.1109ZM22.60073,28.3131a.44744.44744,0,0,1,.21213-.86936,5.19725,5.19725,0,0,0,2.33621.0345,5.28434,5.28434,0,0,0,2.73708-1.60629,6.84633,6.84633,0,0,0,1.27949-2.41143l.05136-.13371a14.162,14.162,0,0,0,.79553-3.03634.4474.4474,0,1,1,.88537.12948,15.0502,15.0502,0,0,1-.84538,3.22817l-.05136.13346a7.60436,7.60436,0,0,1-1.45168,2.69135,6.09371,6.09371,0,0,1-3.20907,1.87938,5.97164,5.97164,0,0,1-1.27882.13745A6.12821,6.12821,0,0,1,22.60073,28.3131Zm2.405,4.44826a6.564,6.564,0,0,1-1.59916-.18941.44749.44749,0,0,1,.22506-.86622,5.56882,5.56882,0,0,0,4.61357-.89256A5.42707,5.42707,0,0,0,30.27559,27.359a.44743.44743,0,1,1,.88453.13558A6.332,6.332,0,0,1,28.787,31.52543,6.21153,6.21153,0,0,1,25.0057,32.76136ZM67.67714,51.42159a2.90462,2.90462,0,0,1-.85891.12839,3.52844,3.52844,0,0,1-2.48864-1.10584.5593.5593,0,1,1,.79795-.78393,2.27168,2.27168,0,0,0,2.21924.69252,2.47886,2.47886,0,0,0,1.415-2.38732,3.1788,3.1788,0,0,0-1.55034-2.55625,1.016,1.016,0,0,1-.34819.56207.862.862,0,0,1-.25.12428q-.08184.022-.16561.04193a1.80824,1.80824,0,0,1-.78351-.07033.5576.5576,0,0,0-.17564-.02507,9.98952,9.98952,0,0,0-.082-1.72471.55946.55946,0,0,0-1.1091.1479,8.1878,8.1878,0,0,1-.37429,3.86836,11.4321,11.4321,0,0,1-1.73746,2.92432,41.9835,41.9835,0,0,1-3.01483,3.59485c-.76212.85474-1.61511,1.76851-2.46985,2.64609-.52987.54407-.79577.81716-1.03763,1.03841a13.12326,13.12326,0,0,1-3.07053,2.10631,10.55526,10.55526,0,0,1-6.01957.68352,10.83628,10.83628,0,0,1-4.77217-1.718A18.26675,18.26675,0,0,1,38.844,56.639a27.028,27.028,0,0,1-3.27989-4.23263,22.03424,22.03424,0,0,1-1.628-3.25572,20.9332,20.9332,0,0,1-1.30837-5.16271.55932.55932,0,0,0-1.11043.13522c.05009.41151.11359.82042.18633,1.22728a1.72613,1.72613,0,0,1-1.336.17328c-.1215-.05111-.26191-.18174-.45586-.59059a2.80484,2.80484,0,0,0-.57084.71493,3.06448,3.06448,0,0,0-.13353,2.53656,2.52137,2.52137,0,0,0,1.74622,1.78585,2.19205,2.19205,0,0,0,1.59064-.455.55928.55928,0,1,1,.6695.89607,3.4535,3.4535,0,0,1-1.99357.69874,2.7833,2.7833,0,0,1-.44311-.0351,3.528,3.528,0,0,1-2.61625-2.49541,4.18592,4.18592,0,0,1,.20168-3.47431,4.02968,4.02968,0,0,1,1.12862-1.27187c-.09715-.29382-.20361-.63736-.32155-1.04289a13.52765,13.52765,0,0,1-.80314-3.85549,8.9763,8.9763,0,0,1,.302-2.24836,5.49153,5.49153,0,0,0,2.84916-.91722,6.05368,6.05368,0,0,0,2.22824-3.41794,12.01265,12.01265,0,0,0,.402-4.22961l-.00091-.68195c-.00085-2.53619-.00127-3.80915.07365-5.19014.24868-4.58112.99745-5.28808,1.31731-5.59005a2.6203,2.6203,0,0,1,1.89195-.818,2.7213,2.7213,0,0,1,1.94723,1.30287.6362.6362,0,0,0,1.0108.02175,3.88264,3.88264,0,0,1,2.71129-1.77232,4.11758,4.11758,0,0,1,2.757,1.1575c.992.74351,1.47331,1.40437,3.96111,5.43943.8316,1.34866,1.214,2.038,1.49319,2.54133a13.13739,13.13739,0,0,0,.83662,1.36389,22.2327,22.2327,0,0,0,3.65853,4.18079,9.32783,9.32783,0,0,0,5.34028,2.47064q.24542.016.48353.01577c.14549-.00006.288-.006.42915-.01438a7.959,7.959,0,0,0,1.83467,4.58148,7.57385,7.57385,0,0,0,1.6136,1.37247,9.83682,9.83682,0,0,0,1.01352.57742.55254.55254,0,0,0,.04423.12658,5.09329,5.09329,0,0,1,.52806,1.70145,3.65546,3.65546,0,0,1,.00224.84937,6.46167,6.46167,0,0,0-.00375,1.24686,6.719,6.719,0,0,0,.16234,1.0215c.01136.05009.02127.09449.03021.13709a4.44131,4.44131,0,0,1,2.59679,3.80051A3.53454,3.53454,0,0,1,67.67714,51.42159ZM70.19031,35.687a4.52877,4.52877,0,0,1-2.818-4.22217.44758.44758,0,0,1,.766-.31158.4443.4443,0,0,1,.12893.31732A3.57246,3.57246,0,0,0,74.3015,34.1235a.44743.44743,0,1,1,.61.6547,4.52265,4.52265,0,0,1-3.09325,1.219A4.38594,4.38594,0,0,1,70.19031,35.687ZM74.626,50.5767a4.14921,4.14921,0,0,1-1.83473,1.05872.44722.44722,0,0,1-.55343-.30735.44738.44738,0,0,1,.307-.55307,3.26868,3.26868,0,0,0,1.44576-.82822c1.07678-1.08681.97558-2.7595.9151-3.75894a7.822,7.822,0,0,0-1.05974-3.45891.44749.44749,0,1,1,.77523-.44722,8.7078,8.7078,0,0,1,1.17768,3.8512C75.86857,47.28207,75.98482,49.20525,74.626,50.5767Z"/><path d="M46.74146,50.66135c-.03311,0-.06543-.00138-.09687-.00435a1.71041,1.71041,0,0,1-.31422-.069l-.11792-.03123c-.20787-.05466-.41633-.10695-.62479-.15924l-.31393-.07907a5.95592,5.95592,0,0,0-1.7175-.06454c-.51112.01947-1.02906.06553-1.54037.1368A.15179.15179,0,0,1,41.974,50.09c.5214-.07265,1.04942-.1196,1.56963-.13957a6.153,6.153,0,0,1,1.805.07364l.31294.07888c.20965.05258.41919.10517.62825.16022l.11841.03123a1.496,1.496,0,0,0,.2647.06029,2.40126,2.40126,0,0,0,.91548-.20372,4.24041,4.24041,0,0,1,1.24226-.09706c.67658-.01068,1.37945.01245,2.08875.06959a.15182.15182,0,0,1,.13917.16349.15365.15365,0,0,1-.16349.13917c-.69961-.05634-1.3923-.08016-2.058-.0686a4.92814,4.92814,0,0,0-1.12859.07235A2.98309,2.98309,0,0,1,46.74146,50.66135Z"/><path d="M50.08224,45.21441a.35375.35375,0,0,0-.07369-.27451.56244.56244,0,0,0-.3051-.18306,1.49786,1.49786,0,0,0-.40681-.08136,1.59317,1.59317,0,0,0-.95623.19312,1.39671,1.39671,0,0,0-.34554.295,1.92973,1.92973,0,0,1-.73114.65736,1.89433,1.89433,0,0,1-1.00548.20457,2.00765,2.00765,0,0,1-1.41612-.9026,1.73171,1.73171,0,0,0-.75259-.54918,1.14654,1.14654,0,0,0-.41246-.04141,1.16859,1.16859,0,0,0-.58378.26123.12841.12841,0,0,0-.03556.05966.23551.23551,0,0,0-.0146.15452c.01022.03023.03147.0586.16821.13695a1.4642,1.4642,0,0,0,.16677.0879,8.662,8.662,0,0,1,1.33593.51206c.04972.02928.08793.05428.10327.06443a1.84477,1.84477,0,0,1,.19621.11346c.06814.04517.11448.08235.13066.095a2.14234,2.14234,0,0,0,.67378.335,2.42179,2.42179,0,0,0,.40392.07628q.09726.00875.19393.0087a2.26974,2.26974,0,0,0,1.62177-.701l.01147-.00032a2.55739,2.55739,0,0,0,.495-.06406c.337-.07485.48925-.0756,1.00761-.20636C49.9295,45.37048,50.04989,45.32011,50.08224,45.21441Z"/>
<!-- <text x="0" y="115" fill="#000000" font-size="5px" font-weight="bold" font-family="'Helvetica Neue', Helvetica, Arial-Unicode, Arial, Sans-serif">Created by Lorie Shaull</text><text x="0" y="120" fill="#000000" font-size="5px" font-weight="bold" font-family="'Helvetica Neue', Helvetica, Arial-Unicode, Arial, Sans-serif">from the Noun Project</text> -->
</svg>
